<svg width="25" height="26" viewBox="0 0 25 26" fill="none" xmlns="http://www.w3.org/2000/svg">
<path d="M21 11.75H3.5M21 11.75C21.663 11.75 22.2989 12.0134 22.7678 12.4822C23.2366 12.9511 23.5 13.587 23.5 14.25V21.75C23.5 22.413 23.2366 23.0489 22.7678 23.5178C22.2989 23.9866 21.663 24.25 21 24.25H3.5C2.83696 24.25 2.20107 23.9866 1.73223 23.5178C1.26339 23.0489 1 22.413 1 21.75V14.25C1 13.587 1.26339 12.9511 1.73223 12.4822C2.20107 12.0134 2.83696 11.75 3.5 11.75M21 11.75V9.25C21 8.58696 20.7366 7.95107 20.2678 7.48223C19.7989 7.01339 19.163 6.75 18.5 6.75M21 11.75L18.5 6.75M3.5 11.75V9.25C3.5 8.58696 3.76339 7.95107 4.23223 7.48223C4.70107 7.01339 5.33696 6.75 6 6.75M3.5 11.75L6 6.75M18.5 6.75V4.25C18.5 3.58696 18.2366 2.95107 17.7678 2.48223C17.2989 2.01339 16.663 1.75 16 1.75H8.5C7.83696 1.75 7.20107 2.01339 6.73223 2.48223C6.26339 2.95107 6 3.58696 6 4.25V6.75M18.5 6.75H6" stroke="white" stroke-width="2" stroke-linecap="round" stroke-linejoin="round"/>
</svg>
